<svg width="105" height="105" viewBox="0 0 105 105" fill="none" xmlns="http://www.w3.org/2000/svg">
<path d="M52.5 0C81.4949 0 105 23.5051 105 52.5C105 81.4949 81.4949 105 52.5 105C23.5051 105 0 81.4949 0 52.5C0 23.5051 23.5051 0 52.5 0ZM53 11C30.3563 11 12 29.3563 12 52C12 74.6437 30.3563 93 53 93C75.6437 93 94 74.6437 94 52C94 29.3563 75.6437 11 53 11ZM52.5 23C55.5548 23 58.0312 25.4764 58.0312 28.5312V46.9688H76.4688C79.5236 46.9688 82 49.4452 82 52.5C82 55.5548 79.5236 58.0312 76.4688 58.0312H58.0312V76.4688C58.0312 79.5236 55.5548 82 52.5 82C49.4452 82 46.9688 79.5236 46.9688 76.4688V58.0312H28.5312C25.4764 58.0312 23 55.5548 23 52.5C23 49.4452 25.4764 46.9688 28.5312 46.9688H46.9688V28.5312C46.9688 25.4764 49.4452 23 52.5 23Z" fill="white"/>
</svg>
